<svg width="1800" height="180" viewBox="0 0 1800 180" fill="none" xmlns="http://www.w3.org/2000/svg">
  <rect width="1800" height="180" rx="18" fill="#122846"/>
  <rect x="18" y="18" width="1764" height="144" rx="14" stroke="url(#frame)" stroke-width="2" opacity="0.35"/>
  <path d="M170 126C310 90 466 78 654 90C846 102 1018 122 1194 118C1398 114 1568 82 1736 56" stroke="url(#wave)" stroke-width="3.5" stroke-linecap="round" opacity="0.75"/>
  <path d="M162 144H1718" stroke="url(#beam)" stroke-width="2.5" stroke-linecap="round" opacity="0.6"/>

  <circle cx="128" cy="90" r="34" fill="white" fill-opacity="0.98"/>
  <circle cx="128" cy="90" r="30" stroke="#0E4FAF" stroke-width="4.5"/>
  <path d="M111 93C116 79 128 69 144 68C135 72 128 79 123 89C120 95 119 102 119 109C117 107 115 105 113 102C112 99 111 96 111 93Z" fill="#59D6FF"/>
  <path d="M134 82L144 63H154L145 82H134Z" fill="#0E4FAF"/>
  <path d="M146 82L156 59H168L160 82H146Z" fill="#70E7FF"/>
  <path d="M133 99C138 91 146 86 156 83C150 88 145 93 142 99H133Z" fill="#0E4FAF"/>
  <rect x="108" y="102" width="40" height="3.5" rx="1.75" fill="#61DDFF"/>
  <path d="M109 110H147" stroke="#61DDFF" stroke-width="2.6" stroke-linecap="round"/>
  <path d="M105 117C109 114 114 112 119 112H145C150 112 154 113 157 116" stroke="#DFFAFF" stroke-width="2.2" stroke-linecap="round"/>

  <circle cx="1566" cy="58" r="3" fill="#59D6FF" opacity="0.9"/>
  <circle cx="1622" cy="74" r="2.5" fill="#59D6FF" opacity="0.65"/>
  <circle cx="1678" cy="62" r="2" fill="#2D86FF" opacity="0.55"/>

  <defs>
    <linearGradient id="frame" x1="54" y1="26" x2="1746" y2="154" gradientUnits="userSpaceOnUse">
      <stop stop-color="#59D6FF"/>
      <stop offset="1" stop-color="#0E4FAF"/>
    </linearGradient>
    <linearGradient id="wave" x1="170" y1="97" x2="1736" y2="97" gradientUnits="userSpaceOnUse">
      <stop stop-color="#59D6FF" stop-opacity="0"/>
      <stop offset="0.18" stop-color="#59D6FF"/>
      <stop offset="0.82" stop-color="#2D86FF"/>
      <stop offset="1" stop-color="#2D86FF" stop-opacity="0"/>
    </linearGradient>
    <linearGradient id="beam" x1="162" y1="145" x2="1718" y2="145" gradientUnits="userSpaceOnUse">
      <stop stop-color="#59D6FF" stop-opacity="0"/>
      <stop offset="0.18" stop-color="#59D6FF"/>
      <stop offset="0.82" stop-color="#2D86FF"/>
      <stop offset="1" stop-color="#2D86FF" stop-opacity="0"/>
    </linearGradient>
  </defs>
</svg>
