<svg width="1800" height="160" viewBox="0 0 1800 160" fill="none" xmlns="http://www.w3.org/2000/svg">
  <rect width="1800" height="160" rx="18" fill="url(#bg)"/>
  <rect x="16" y="16" width="1768" height="128" rx="14" stroke="url(#frame)" stroke-width="2" opacity="0.38"/>

  <g transform="translate(60 30)">
    <circle cx="50" cy="50" r="42" fill="#F8FDFF"/>
    <circle cx="50" cy="50" r="37" stroke="#0E4FAF" stroke-width="5"/>
    <path d="M31 53C36 39 47 29 64 28C55 33 48 40 44 50C41 56 40 63 40 70C38 68 35 66 34 63C33 59 31 56 31 53Z" fill="#58D8FF"/>
    <path d="M53 42L65 18H76L66 42H53Z" fill="#0E4FAF"/>
    <path d="M67 42L78 14H90L81 42H67Z" fill="#6CE6FF"/>
    <path d="M51 59C56 51 64 45 75 42C69 47 64 52 60 59H51Z" fill="#0E4FAF"/>
    <rect x="28" y="62" width="45" height="4" rx="2" fill="#61DDFF"/>
    <path d="M29 71H72" stroke="#61DDFF" stroke-width="3" stroke-linecap="round"/>
    <path d="M26 78C30 75 35 73 40 73H69C74 73 78 74 81 77" stroke="#DFFAFF" stroke-width="2.4" stroke-linecap="round"/>
  </g>

  <text x="170" y="68" fill="white" font-family="Arial, Helvetica, sans-serif" font-size="52" font-weight="800" letter-spacing="4">BIHUBA</text>
  <text x="172" y="97" fill="#D8F7FF" font-family="Arial, Helvetica, sans-serif" font-size="18" font-weight="700" letter-spacing="2.2">HOI DOANH NGHIEP XA BINH HUNG</text>
  <text x="172" y="121" fill="#6CE6FF" font-family="Arial, Helvetica, sans-serif" font-size="14" font-weight="700" letter-spacing="1.8">THANH PHO HO CHI MINH</text>

  <path d="M720 48C860 24 982 22 1130 36C1298 52 1444 76 1604 70C1662 68 1712 61 1760 50" stroke="url(#trail)" stroke-width="3.5" stroke-linecap="round" opacity="0.8"/>
  <path d="M670 108H1734" stroke="url(#beam)" stroke-width="2.6" stroke-linecap="round" opacity="0.75"/>
  <path d="M740 126H1652" stroke="url(#beamSoft)" stroke-width="1.8" stroke-linecap="round" opacity="0.5"/>

  <circle cx="1514" cy="40" r="3" fill="#59D6FF"/>
  <circle cx="1574" cy="58" r="2.5" fill="#59D6FF" opacity="0.7"/>
  <circle cx="1638" cy="46" r="2.2" fill="#2D86FF" opacity="0.55"/>

  <defs>
    <linearGradient id="bg" x1="0" y1="0" x2="1800" y2="160" gradientUnits="userSpaceOnUse">
      <stop stop-color="#112948"/>
      <stop offset="0.56" stop-color="#14335A"/>
      <stop offset="1" stop-color="#0E2440"/>
    </linearGradient>
    <linearGradient id="frame" x1="56" y1="22" x2="1748" y2="138" gradientUnits="userSpaceOnUse">
      <stop stop-color="#59D6FF"/>
      <stop offset="1" stop-color="#0E4FAF"/>
    </linearGradient>
    <linearGradient id="trail" x1="720" y1="47" x2="1760" y2="47" gradientUnits="userSpaceOnUse">
      <stop stop-color="#59D6FF" stop-opacity="0"/>
      <stop offset="0.2" stop-color="#59D6FF"/>
      <stop offset="0.78" stop-color="#2D86FF"/>
      <stop offset="1" stop-color="#2D86FF" stop-opacity="0"/>
    </linearGradient>
    <linearGradient id="beam" x1="670" y1="109.3" x2="1734" y2="109.3" gradientUnits="userSpaceOnUse">
      <stop stop-color="#59D6FF" stop-opacity="0"/>
      <stop offset="0.14" stop-color="#59D6FF"/>
      <stop offset="0.84" stop-color="#2D86FF"/>
      <stop offset="1" stop-color="#2D86FF" stop-opacity="0"/>
    </linearGradient>
    <linearGradient id="beamSoft" x1="740" y1="126.9" x2="1652" y2="126.9" gradientUnits="userSpaceOnUse">
      <stop stop-color="#59D6FF" stop-opacity="0"/>
      <stop offset="0.2" stop-color="#59D6FF"/>
      <stop offset="0.8" stop-color="#2D86FF"/>
      <stop offset="1" stop-color="#2D86FF" stop-opacity="0"/>
    </linearGradient>
  </defs>
</svg>
